<?xml version="1.0" encoding="utf-8"?>
<!DOCTYPE svg PUBLIC "-//W3C//DTD SVG 1.1//EN" "http://www.w3.org/Graphics/SVG/1.1/DTD/svg11.dtd">
<svg version="1.1" id="Layer_1" xmlns="http://www.w3.org/2000/svg" xmlns:xlink="http://www.w3.org/1999/xlink" x="0px" y="0px"
	 viewBox="0 0 163 36" enable-background="new 0 0 163 36" xml:space="preserve">
<g>
	<line fill="#FFFFFF" x1="31.2" y1="1.8" x2="31.2" y2="1.8"/>
	<path fill="#FFFFFF" d="M13.1,0H8.8L0,22.5h3.3c0.4,0,0.7-0.1,0.9-0.3c0.2-0.2,0.4-0.4,0.5-0.7L6.3,17h9.3l1,2.7l2.6-4L13.1,0z
		 M7.4,14c0,0,3.4-9.6,3.6-10.1C11.1,4.4,14.6,14,14.6,14H7.4z"/>
	<polygon fill="#55BBAA" points="33.9,0 10.4,36 11.3,36 34.8,0 	"/>
	<path fill="#FFFFFF" d="M35.3,24.2l7.3-10.8h-4c-0.4,0-0.7,0.2-0.9,0.6l-0.6,0.9l-4.5,7.3l-3.8-6.2l-2.4,3.6l3.1,4.7L22,36h3.9
		c0.2,0,0.5-0.1,0.6-0.2c0.1-0.1,0.2-0.2,0.3-0.3l5.4-8.8l5.2,8.6c0.1,0.2,0.3,0.4,0.4,0.5c0.2,0.1,0.4,0.2,0.7,0.2h4.2L35.3,24.2z"
		/>
	<g>
		<path fill="#FFFFFF" d="M77.2,15.6c-0.1,0.1-0.1,0.2-0.2,0.2c-0.1,0-0.2,0.1-0.3,0.1s-0.2,0-0.4-0.1c-0.1-0.1-0.3-0.2-0.5-0.3
			c-0.2-0.1-0.5-0.2-0.8-0.3c-0.3-0.1-0.7-0.1-1.1-0.1c-0.6,0-1.1,0.1-1.6,0.3c-0.5,0.2-0.8,0.5-1.1,0.9c-0.3,0.4-0.5,0.9-0.7,1.4
			c-0.2,0.6-0.2,1.2-0.2,1.9c0,0.7,0.1,1.4,0.2,1.9s0.4,1,0.7,1.4c0.3,0.4,0.7,0.7,1.1,0.9c0.4,0.2,0.9,0.3,1.5,0.3
			c0.5,0,0.9-0.1,1.3-0.2c0.3-0.1,0.6-0.3,0.8-0.4c0.2-0.2,0.4-0.3,0.5-0.4c0.1-0.1,0.3-0.2,0.4-0.2c0.2,0,0.3,0.1,0.4,0.2l0.6,0.8
			c-0.5,0.6-1.2,1.1-2,1.4c-0.8,0.3-1.6,0.4-2.5,0.4c-0.7,0-1.4-0.1-2.1-0.4s-1.2-0.7-1.7-1.2c-0.5-0.5-0.8-1.2-1.1-1.9
			c-0.3-0.8-0.4-1.6-0.4-2.6c0-0.9,0.1-1.7,0.4-2.5c0.2-0.8,0.6-1.4,1.1-2c0.5-0.5,1.1-1,1.8-1.3c0.7-0.3,1.5-0.5,2.4-0.5
			c0.8,0,1.6,0.1,2.2,0.4c0.6,0.3,1.2,0.7,1.7,1.2L77.2,15.6z"/>
		<path fill="#FFFFFF" d="M88.3,15.6c-0.1,0.1-0.1,0.2-0.2,0.2c-0.1,0-0.2,0.1-0.3,0.1c-0.1,0-0.2,0-0.4-0.1
			c-0.1-0.1-0.3-0.2-0.5-0.3c-0.2-0.1-0.5-0.2-0.8-0.3c-0.3-0.1-0.7-0.1-1.1-0.1c-0.6,0-1.1,0.1-1.6,0.3c-0.5,0.2-0.8,0.5-1.1,0.9
			c-0.3,0.4-0.5,0.9-0.7,1.4c-0.2,0.6-0.2,1.2-0.2,1.9c0,0.7,0.1,1.4,0.2,1.9s0.4,1,0.7,1.4c0.3,0.4,0.7,0.7,1.1,0.9
			c0.4,0.2,0.9,0.3,1.5,0.3c0.5,0,0.9-0.1,1.3-0.2c0.3-0.1,0.6-0.3,0.8-0.4c0.2-0.2,0.4-0.3,0.5-0.4c0.1-0.1,0.3-0.2,0.4-0.2
			c0.2,0,0.3,0.1,0.4,0.2l0.6,0.8c-0.5,0.6-1.2,1.1-2,1.4c-0.8,0.3-1.6,0.4-2.5,0.4c-0.7,0-1.4-0.1-2.1-0.4s-1.2-0.7-1.7-1.2
			c-0.5-0.5-0.8-1.2-1.1-1.9c-0.3-0.8-0.4-1.6-0.4-2.6c0-0.9,0.1-1.7,0.4-2.5c0.2-0.8,0.6-1.4,1.1-2c0.5-0.5,1.1-1,1.8-1.3
			s1.5-0.5,2.4-0.5c0.8,0,1.6,0.1,2.2,0.4c0.6,0.3,1.2,0.7,1.7,1.2L88.3,15.6z"/>
		<path fill="#FFFFFF" d="M96,13.3c0.9,0,1.7,0.1,2.4,0.4c0.7,0.3,1.3,0.7,1.8,1.2c0.5,0.5,0.9,1.2,1.1,1.9c0.3,0.8,0.4,1.6,0.4,2.6
			c0,0.9-0.1,1.8-0.4,2.6c-0.3,0.8-0.6,1.4-1.1,1.9c-0.5,0.5-1.1,0.9-1.8,1.2c-0.7,0.3-1.5,0.4-2.4,0.4s-1.7-0.1-2.4-0.4
			c-0.7-0.3-1.3-0.7-1.8-1.2c-0.5-0.5-0.9-1.2-1.1-1.9c-0.3-0.8-0.4-1.6-0.4-2.6c0-0.9,0.1-1.8,0.4-2.6c0.3-0.8,0.7-1.4,1.1-1.9
			s1.1-1,1.8-1.2C94.4,13.4,95.2,13.3,96,13.3z M96,24c1.2,0,2.1-0.4,2.7-1.2c0.6-0.8,0.9-1.9,0.9-3.3c0-1.4-0.3-2.5-0.9-3.3
			C98.1,15.4,97.2,15,96,15c-0.6,0-1.1,0.1-1.6,0.3c-0.4,0.2-0.8,0.5-1.1,0.9c-0.3,0.4-0.5,0.9-0.7,1.4c-0.1,0.6-0.2,1.2-0.2,1.9
			s0.1,1.3,0.2,1.9c0.1,0.6,0.4,1,0.7,1.4s0.7,0.7,1.1,0.9C94.9,23.9,95.4,24,96,24z"/>
		<path fill="#FFFFFF" d="M106.2,13.5v7.6c0,0.9,0.2,1.6,0.6,2.1c0.4,0.5,1,0.7,1.9,0.7c0.6,0,1.2-0.1,1.7-0.4
			c0.5-0.3,1-0.7,1.5-1.2v-8.8h2.1v12h-1.3c-0.3,0-0.5-0.1-0.6-0.4l-0.2-1.3c-0.5,0.6-1.1,1-1.8,1.4c-0.6,0.4-1.4,0.5-2.2,0.5
			c-0.7,0-1.2-0.1-1.7-0.3c-0.5-0.2-0.9-0.5-1.3-0.9c-0.3-0.4-0.6-0.9-0.8-1.4c-0.2-0.6-0.3-1.2-0.3-1.9v-7.6H106.2z"/>
		<path fill="#FFFFFF" d="M117.5,25.5v-12h1.3c0.3,0,0.5,0.1,0.6,0.4l0.2,1.3c0.5-0.6,1.1-1,1.7-1.4c0.6-0.4,1.4-0.5,2.2-0.5
			c0.7,0,1.2,0.1,1.7,0.3c0.5,0.2,0.9,0.5,1.3,0.9c0.3,0.4,0.6,0.9,0.8,1.4c0.2,0.6,0.3,1.2,0.3,1.9v7.6h-2.1v-7.6
			c0-0.9-0.2-1.6-0.6-2.1c-0.4-0.5-1-0.8-1.9-0.8c-0.6,0-1.2,0.2-1.7,0.4c-0.5,0.3-1,0.7-1.5,1.2v8.8H117.5z"/>
		<path fill="#FFFFFF" d="M134.3,25.7c-0.9,0-1.7-0.3-2.2-0.8c-0.5-0.5-0.8-1.3-0.8-2.3v-7.3h-1.4c-0.1,0-0.2,0-0.3-0.1
			c-0.1-0.1-0.1-0.2-0.1-0.3v-0.8l2-0.2l0.5-3.7c0-0.1,0.1-0.2,0.2-0.3c0.1-0.1,0.2-0.1,0.3-0.1h1.1v4.1h3.4v1.5h-3.4v7.2
			c0,0.5,0.1,0.9,0.4,1.1s0.6,0.4,0.9,0.4c0.2,0,0.4,0,0.6-0.1c0.2-0.1,0.3-0.1,0.4-0.2c0.1-0.1,0.2-0.1,0.3-0.2
			c0.1-0.1,0.2-0.1,0.2-0.1c0.1,0,0.2,0.1,0.3,0.2l0.6,1c-0.4,0.3-0.8,0.6-1.3,0.8C135.4,25.6,134.9,25.7,134.3,25.7z"/>
		<path fill="#FFFFFF" d="M64.8,13.5c-0.3,0-0.5,0.2-0.6,0.5l-0.1,0.6c0,0,0,0,0,0c-0.1-0.1-0.3-0.2-0.4-0.3l0,0
			c-0.2-0.1-0.3-0.2-0.5-0.3c0.3,0.2,0.3,0.2,0,0c0,0,0,0,0,0c-0.1,0-0.2-0.1-0.3-0.1c-0.7-0.3-1.5-0.4-2.3-0.4c-0.1,0-0.2,0-0.3,0
			h0c-0.8,0-1.5,0.2-2.1,0.4c-0.7,0.3-1.3,0.7-1.8,1.2c-0.5,0.5-0.9,1.2-1.1,1.9c-0.3,0.8-0.4,1.6-0.4,2.6c0,0.9,0.1,1.8,0.4,2.6
			c0.3,0.8,0.7,1.4,1.1,1.9c0.5,0.5,1.1,0.9,1.8,1.2c0.6,0.3,1.4,0.4,2.1,0.4h0c0.1,0,0.2,0,0.3,0c0.8,0,1.6-0.1,2.3-0.4
			c0.1,0,0.2-0.1,0.3-0.1c0,0,0,0,0.1,0c0.3-0.2,0.3-0.2,0,0c0.3-0.2,0.6-0.4,0.9-0.6l0,0l0.1,0.6c0.1,0.3,0.3,0.4,0.6,0.4H66v-4.2
			v-1.8v-1.7v-4.3H64.8z M64,19.5c0,1.4-0.3,2.5-0.9,3.3c-0.5,0.7-1.2,1-2.1,1.1c-0.2,0-0.4,0-0.6,0c-0.6,0-1.1-0.1-1.6-0.3
			c-0.4-0.2-0.8-0.5-1.1-0.9c-0.3-0.4-0.5-0.9-0.7-1.4c-0.1-0.6-0.2-1.2-0.2-1.9c0,0,0,0,0,0s0,0,0,0c0-0.7,0.1-1.3,0.2-1.9
			c0.1-0.6,0.4-1,0.7-1.4c0.3-0.4,0.7-0.7,1.1-0.9c0.4-0.2,1-0.3,1.6-0.3c0.2,0,0.4,0,0.6,0c0.9,0.1,1.6,0.5,2.1,1.1
			C63.7,17,64,18.1,64,19.5C64,19.5,64,19.5,64,19.5C64,19.5,64,19.5,64,19.5z"/>
		<path fill="#FFFFFF" d="M148.3,13.5c-0.3,0-0.5,0.2-0.6,0.5l-0.1,0.6c0,0,0,0,0,0c-0.1-0.1-0.3-0.2-0.4-0.3l0,0
			c-0.2-0.1-0.3-0.2-0.5-0.3c0.3,0.2,0.3,0.2,0,0c0,0,0,0,0,0c-0.1,0-0.2-0.1-0.3-0.1c-0.7-0.3-1.5-0.4-2.3-0.4c-0.1,0-0.2,0-0.3,0
			h0c-0.8,0-1.5,0.2-2.1,0.4c-0.7,0.3-1.3,0.7-1.8,1.2c-0.5,0.5-0.9,1.2-1.1,1.9c-0.3,0.8-0.4,1.6-0.4,2.6c0,0.9,0.1,1.8,0.4,2.6
			c0.3,0.8,0.7,1.4,1.1,1.9c0.5,0.5,1.1,0.9,1.8,1.2c0.6,0.3,1.4,0.4,2.1,0.4h0c0.1,0,0.2,0,0.3,0c0.8,0,1.6-0.1,2.3-0.4
			c0.1,0,0.2-0.1,0.3-0.1c0,0,0,0,0.1,0c0.3-0.2,0.3-0.2,0,0c0.3-0.2,0.6-0.4,0.9-0.6l0,0l0.1,0.6c0.1,0.3,0.3,0.4,0.6,0.4h1.3v-4.2
			v-1.8v-1.7v-4.3H148.3z M147.6,19.5c0,1.4-0.3,2.5-0.9,3.3c-0.5,0.7-1.2,1-2.1,1.1c-0.2,0-0.4,0-0.6,0c-0.6,0-1.1-0.1-1.6-0.3
			c-0.4-0.2-0.8-0.5-1.1-0.9c-0.3-0.4-0.5-0.9-0.7-1.4c-0.1-0.6-0.2-1.2-0.2-1.9c0,0,0,0,0,0s0,0,0,0c0-0.7,0.1-1.3,0.2-1.9
			c0.1-0.6,0.4-1,0.7-1.4c0.3-0.4,0.7-0.7,1.1-0.9s1-0.3,1.6-0.3c0.2,0,0.4,0,0.6,0c0.9,0.1,1.6,0.5,2.1,1.1
			C147.3,17,147.6,18.1,147.6,19.5C147.6,19.5,147.6,19.5,147.6,19.5C147.6,19.5,147.6,19.5,147.6,19.5z"/>
		<path fill="#FFFFFF" d="M158.9,19.5l3.9-6h-2c-0.1,0-0.2,0-0.3,0.1c-0.1,0-0.1,0.1-0.1,0.2l-2.8,4.6l-2.7-4.5
			c-0.1-0.1-0.1-0.2-0.2-0.3c-0.1-0.1-0.2-0.1-0.4-0.1H152l3.8,6h0l-3.9,6h2c0.1,0,0.2,0,0.3-0.1c0.1,0,0.1-0.1,0.1-0.2l2.8-4.6
			l2.7,4.5c0.1,0.1,0.1,0.2,0.2,0.3c0.1,0.1,0.2,0.1,0.4,0.1h2.2L158.9,19.5L158.9,19.5z"/>
	</g>
</g>
</svg>
